<svg width="119" height="22" viewBox="0 0 119 22" fill="none" xmlns="http://www.w3.org/2000/svg">
<g clip-path="url(#clip0_98_2)">
<path d="M0.876006 8.16288C-0.293086 9.33612 -0.291842 11.2396 0.878784 12.4145L8.55487 20.1181C9.72545 21.2929 11.6222 21.2942 12.7913 20.1208C13.9603 18.9476 13.9591 17.0441 12.7885 15.8692L11.1988 14.2738C10.8183 13.892 10.2019 13.8916 9.82194 14.2729C9.44203 14.6543 9.44243 15.2729 9.82283 15.6547L11.439 17.2767C11.8341 17.6732 11.8345 18.3156 11.44 18.7116C11.0454 19.1076 10.4052 19.1072 10.0102 18.7107L2.28113 10.9539C1.88604 10.5574 1.88563 9.91496 2.28024 9.51902C2.67477 9.12299 3.31492 9.1234 3.71001 9.51991L6.01128 11.8295C7.25203 13.0747 9.25147 13.0935 10.512 11.885L11.024 11.3723C11.4331 10.9617 12.097 10.9621 12.5067 11.3733L14.8876 13.7626C16.0582 14.9375 17.9549 14.9387 19.124 13.7654C20.2931 12.5921 20.2918 10.6886 19.1212 9.51383L11.4452 1.81024C10.2745 0.635413 8.22793 0.784575 7.0588 1.95786C5.88976 3.13113 6.04083 4.88426 7.21149 6.05903L8.80122 7.65446C9.18162 8.0363 9.79812 8.03671 10.178 7.65535C10.558 7.27408 10.5576 6.65545 10.1771 6.27361L8.56092 4.6516C8.16583 4.25509 8.16543 3.61264 8.56004 3.2167C8.95456 2.82068 9.59472 2.82108 9.98981 3.21759L17.7188 10.9744C18.1139 11.3709 18.1143 12.0133 17.7198 12.4093C17.3252 12.8053 16.685 12.8049 16.29 12.4083L13.9887 10.0988L13.988 10.0994C12.744 8.90655 10.7835 8.90525 9.54102 10.0965L9.54038 10.0959L9.02901 10.6091C8.61979 11.0198 7.95597 11.0194 7.54627 10.6081L5.11241 8.16564C3.94184 6.99086 2.04511 6.98956 0.876006 8.16288Z" fill="white"/>
</g>
<path d="M27.1378 17.5V4.40909H29.9055V9.81037H35.5241V4.40909H38.2855V17.5H35.5241V12.0923H29.9055V17.5H27.1378ZM43.3161 17.6854C42.6896 17.6854 42.1314 17.5767 41.6413 17.3594C41.1513 17.1378 40.7635 16.8118 40.478 16.3814C40.1967 15.9467 40.0561 15.4055 40.0561 14.7578C40.0561 14.2124 40.1563 13.7543 40.3565 13.3835C40.5568 13.0128 40.8295 12.7145 41.1747 12.4886C41.5199 12.2628 41.9119 12.0923 42.3509 11.9773C42.794 11.8622 43.2585 11.7812 43.7443 11.7344C44.3153 11.6747 44.7756 11.6193 45.125 11.5682C45.4744 11.5128 45.728 11.4318 45.8857 11.3253C46.0433 11.2187 46.1222 11.0611 46.1222 10.8523V10.8139C46.1222 10.4091 45.9943 10.0959 45.7386 9.87429C45.4872 9.6527 45.1293 9.5419 44.6648 9.5419C44.1747 9.5419 43.7848 9.65057 43.495 9.8679C43.2053 10.081 43.0135 10.3494 42.9197 10.6733L40.4013 10.4688C40.5291 9.87216 40.7805 9.35653 41.1555 8.92188C41.5305 8.48295 42.0142 8.14631 42.6065 7.91193C43.2031 7.6733 43.8935 7.55398 44.6776 7.55398C45.223 7.55398 45.745 7.6179 46.2436 7.74574C46.7464 7.87358 47.1918 8.07173 47.5795 8.3402C47.9716 8.60866 48.2805 8.95384 48.5064 9.37571C48.7322 9.79332 48.8452 10.294 48.8452 10.8778V17.5H46.2628V16.1385H46.1861C46.0284 16.4453 45.8175 16.7159 45.5533 16.9503C45.2891 17.1804 44.9716 17.3615 44.6009 17.4936C44.2301 17.6214 43.8018 17.6854 43.3161 17.6854ZM44.0959 15.8061C44.4964 15.8061 44.8501 15.7273 45.157 15.5696C45.4638 15.4077 45.7045 15.1903 45.8793 14.9176C46.054 14.6449 46.1413 14.3359 46.1413 13.9908V12.9489C46.0561 13.0043 45.9389 13.0554 45.7898 13.1023C45.6449 13.1449 45.4808 13.1854 45.2976 13.2237C45.1143 13.2578 44.9311 13.2898 44.7479 13.3196C44.5646 13.3452 44.3984 13.3686 44.2493 13.3899C43.9297 13.4368 43.6506 13.5114 43.4119 13.6136C43.1733 13.7159 42.9879 13.8544 42.8558 14.0291C42.7237 14.1996 42.6577 14.4126 42.6577 14.6683C42.6577 15.0391 42.7919 15.3224 43.0604 15.5185C43.3331 15.7102 43.6783 15.8061 44.0959 15.8061ZM51.0089 17.5V4.40909H53.7319V9.33097H53.815C53.9343 9.06676 54.1069 8.7983 54.3327 8.52557C54.5629 8.24858 54.8612 8.01847 55.2276 7.83523C55.5984 7.64773 56.0586 7.55398 56.6083 7.55398C57.3242 7.55398 57.9847 7.74148 58.5898 8.11648C59.195 8.48722 59.6786 9.04759 60.0408 9.79759C60.4031 10.5433 60.5842 11.4787 60.5842 12.6037C60.5842 13.6989 60.4073 14.6236 60.0536 15.3778C59.7042 16.1278 59.2269 16.6967 58.6218 17.0845C58.021 17.468 57.3477 17.6598 56.6019 17.6598C56.0735 17.6598 55.6239 17.5724 55.2532 17.3977C54.8867 17.223 54.5863 17.0036 54.3519 16.7393C54.1175 16.4709 53.9386 16.2003 53.815 15.9276H53.6935V17.5H51.0089ZM53.6744 12.5909C53.6744 13.1747 53.7553 13.6839 53.9173 14.1186C54.0792 14.5533 54.3136 14.892 54.6204 15.1349C54.9272 15.3736 55.3001 15.4929 55.739 15.4929C56.1822 15.4929 56.5572 15.3714 56.864 15.1286C57.1708 14.8814 57.4031 14.5405 57.5607 14.1058C57.7227 13.6669 57.8036 13.1619 57.8036 12.5909C57.8036 12.0241 57.7248 11.5256 57.5671 11.0952C57.4094 10.6648 57.1772 10.3281 56.8704 10.0852C56.5636 9.84233 56.1864 9.72088 55.739 9.72088C55.2958 9.72088 54.9208 9.83807 54.614 10.0724C54.3114 10.3068 54.0792 10.6392 53.9173 11.0696C53.7553 11.5 53.6744 12.0071 53.6744 12.5909ZM62.4011 17.5V7.68182H65.1241V17.5H62.4011ZM63.769 6.41619C63.3642 6.41619 63.0169 6.28196 62.7271 6.01349C62.4416 5.74077 62.2988 5.41477 62.2988 5.03551C62.2988 4.66051 62.4416 4.33878 62.7271 4.07031C63.0169 3.79758 63.3642 3.66122 63.769 3.66122C64.1738 3.66122 64.519 3.79758 64.8045 4.07031C65.0943 4.33878 65.2392 4.66051 65.2392 5.03551C65.2392 5.41477 65.0943 5.74077 64.8045 6.01349C64.519 6.28196 64.1738 6.41619 63.769 6.41619ZM72.5277 7.68182V9.72727H66.6151V7.68182H72.5277ZM67.9574 5.32955H70.6804V14.483C70.6804 14.7344 70.7188 14.9304 70.7955 15.071C70.8722 15.2074 70.9787 15.3033 71.1151 15.3587C71.2557 15.4141 71.4176 15.4418 71.6009 15.4418C71.7287 15.4418 71.8565 15.4311 71.9844 15.4098C72.1122 15.3842 72.2102 15.3651 72.2784 15.3523L72.7067 17.3786C72.5703 17.4212 72.3786 17.4702 72.1314 17.5256C71.8842 17.5852 71.5838 17.6214 71.2301 17.6342C70.5739 17.6598 69.9986 17.5724 69.5043 17.3722C69.0142 17.1719 68.6328 16.8608 68.3601 16.4389C68.0874 16.017 67.9531 15.4844 67.9574 14.8409V5.32955ZM80.5977 13.3196V7.68182H83.3207V17.5H80.7063V15.7166H80.604C80.3825 16.2919 80.0138 16.7543 79.4982 17.1037C78.9869 17.4531 78.3626 17.6278 77.6254 17.6278C76.9691 17.6278 76.3917 17.4787 75.8931 17.1804C75.3945 16.8821 75.0046 16.4581 74.7234 15.9084C74.4464 15.3587 74.3058 14.7003 74.3015 13.9332V7.68182H77.0245V13.4474C77.0288 14.027 77.1843 14.4851 77.4911 14.8217C77.7979 15.1584 78.2092 15.3267 78.7248 15.3267C79.0529 15.3267 79.3597 15.2521 79.6452 15.103C79.9308 14.9496 80.1609 14.7237 80.3356 14.4254C80.5146 14.1271 80.6019 13.7585 80.5977 13.3196ZM88.2985 17.6854C87.6721 17.6854 87.1138 17.5767 86.6238 17.3594C86.1337 17.1378 85.7459 16.8118 85.4604 16.3814C85.1792 15.9467 85.0385 15.4055 85.0385 14.7578C85.0385 14.2124 85.1387 13.7543 85.339 13.3835C85.5392 13.0128 85.812 12.7145 86.1571 12.4886C86.5023 12.2628 86.8944 12.0923 87.3333 11.9773C87.7765 11.8622 88.2409 11.7812 88.7267 11.7344C89.2978 11.6747 89.758 11.6193 90.1074 11.5682C90.4569 11.5128 90.7104 11.4318 90.8681 11.3253C91.0257 11.2187 91.1046 11.0611 91.1046 10.8523V10.8139C91.1046 10.4091 90.9767 10.0959 90.7211 9.87429C90.4696 9.6527 90.1117 9.5419 89.6472 9.5419C89.1571 9.5419 88.7672 9.65057 88.4775 9.8679C88.1877 10.081 87.9959 10.3494 87.9022 10.6733L85.3837 10.4688C85.5115 9.87216 85.763 9.35653 86.138 8.92188C86.513 8.48295 86.9966 8.14631 87.589 7.91193C88.1855 7.6733 88.8759 7.55398 89.66 7.55398C90.2054 7.55398 90.7275 7.6179 91.226 7.74574C91.7289 7.87358 92.1742 8.07173 92.562 8.3402C92.954 8.60866 93.263 8.95384 93.4888 9.37571C93.7147 9.79332 93.8276 10.294 93.8276 10.8778V17.5H91.2452V16.1385H91.1685C91.0108 16.4453 90.7999 16.7159 90.5357 16.9503C90.2715 17.1804 89.954 17.3615 89.5833 17.4936C89.2125 17.6214 88.7843 17.6854 88.2985 17.6854ZM89.0783 15.8061C89.4789 15.8061 89.8326 15.7273 90.1394 15.5696C90.4462 15.4077 90.687 15.1903 90.8617 14.9176C91.0364 14.6449 91.1238 14.3359 91.1238 13.9908V12.9489C91.0385 13.0043 90.9213 13.0554 90.7722 13.1023C90.6273 13.1449 90.4632 13.1854 90.28 13.2237C90.0968 13.2578 89.9135 13.2898 89.7303 13.3196C89.5471 13.3452 89.3809 13.3686 89.2317 13.3899C88.9121 13.4368 88.633 13.5114 88.3944 13.6136C88.1557 13.7159 87.9703 13.8544 87.8382 14.0291C87.7061 14.1996 87.6401 14.4126 87.6401 14.6683C87.6401 15.0391 87.7743 15.3224 88.0428 15.5185C88.3155 15.7102 88.6607 15.8061 89.0783 15.8061ZM101.162 7.68182V9.72727H95.2498V7.68182H101.162ZM96.5922 5.32955H99.3152V14.483C99.3152 14.7344 99.3535 14.9304 99.4302 15.071C99.5069 15.2074 99.6135 15.3033 99.7498 15.3587C99.8904 15.4141 100.052 15.4418 100.236 15.4418C100.363 15.4418 100.491 15.4311 100.619 15.4098C100.747 15.3842 100.845 15.3651 100.913 15.3523L101.341 17.3786C101.205 17.4212 101.013 17.4702 100.766 17.5256C100.519 17.5852 100.219 17.6214 99.8649 17.6342C99.2086 17.6598 98.6333 17.5724 98.139 17.3722C97.649 17.1719 97.2676 16.8608 96.9949 16.4389C96.7221 16.017 96.5879 15.4844 96.5922 14.8409V5.32955ZM107.305 17.6918C106.295 17.6918 105.426 17.4872 104.697 17.0781C103.973 16.6648 103.415 16.081 103.023 15.3267C102.631 14.5682 102.434 13.6712 102.434 12.6357C102.434 11.6257 102.631 10.7393 103.023 9.97656C103.415 9.21378 103.966 8.61932 104.678 8.19318C105.394 7.76705 106.233 7.55398 107.197 7.55398C107.844 7.55398 108.447 7.65838 109.006 7.86719C109.568 8.07173 110.058 8.38068 110.476 8.79403C110.898 9.20739 111.226 9.72727 111.46 10.3537C111.694 10.9759 111.812 11.7045 111.812 12.5398V13.2876H103.521V11.6001H109.248C109.248 11.2081 109.163 10.8608 108.993 10.5582C108.822 10.2557 108.586 10.0192 108.283 9.84872C107.985 9.67401 107.638 9.58665 107.241 9.58665C106.828 9.58665 106.461 9.68253 106.142 9.87429C105.827 10.0618 105.579 10.3153 105.4 10.6349C105.221 10.9503 105.13 11.3018 105.126 11.6896V13.294C105.126 13.7798 105.215 14.1996 105.394 14.5533C105.577 14.907 105.835 15.1797 106.167 15.3714C106.5 15.5632 106.894 15.6591 107.35 15.6591C107.653 15.6591 107.93 15.6165 108.181 15.5312C108.432 15.446 108.648 15.3182 108.827 15.1477C109.006 14.9773 109.142 14.7685 109.236 14.5213L111.754 14.6875C111.626 15.2926 111.364 15.821 110.968 16.2727C110.576 16.7202 110.069 17.0696 109.447 17.321C108.829 17.5682 108.115 17.6918 107.305 17.6918Z" fill="white"/>
<defs>
<clipPath id="clip0_98_2">
<rect y="1" width="20" height="20" rx="4" fill="white"/>
</clipPath>
</defs>
</svg>
